<svg width="424" height="431" viewBox="0 0 424 431" fill="none" xmlns="http://www.w3.org/2000/svg">
<mask id="mask0_2033_90" style="mask-type:alpha" maskUnits="userSpaceOnUse" x="48" y="51" width="330" height="330">
<circle cx="213" cy="216" r="165" fill="#D9D9D9"/>
</mask>
<g mask="url(#mask0_2033_90)">
<path d="M181.5 182C170.017 172.063 159.843 166.964 151.5 177C143.157 187.036 149.492 209.822 151.5 213C185.524 190.586 205.18 188.711 233 194.5C232.521 186.988 230 180.5 222.5 165.5C211.5 145.5 201.5 142.5 195.5 141C184.502 139.566 178.368 145.155 177.5 154.5C176.552 164.698 179.488 174.581 181.5 182Z" fill="#C42F5F"/>
<ellipse cx="166.273" cy="183.154" rx="11.6682" ry="14.1298" transform="rotate(-47.3745 166.273 183.154)" fill="#F84D6B"/>
<ellipse cx="208.356" cy="166.354" rx="12.6141" ry="32.4546" transform="rotate(-49.4427 208.356 166.354)" fill="#F84D6B"/>
<ellipse cx="170.441" cy="177.66" rx="5.30393" ry="8.50117" transform="rotate(-47.3745 170.441 177.66)" fill="#FFB9CC"/>
<ellipse cx="208.05" cy="155.545" rx="7.16219" ry="20.7302" transform="rotate(-47.3745 208.05 155.545)" fill="#FFB9CC"/>
<path d="M181.5 182C174.5 171 161.843 167.964 153.5 178C145.157 188.036 149.492 209.822 151.5 213C185.524 190.586 205.18 188.711 233 194.5C232.52 186.988 232 175.636 225.5 165C214.5 147 203.5 142.044 195.5 141C184.502 139.566 178.368 145.155 177.5 154.5C176.552 164.698 179.488 174.581 181.5 182Z" stroke="black" stroke-width="6" stroke-linejoin="round"/>
<path d="M315 312C315 376.617 269.109 429 212.5 429C155.891 429 110 376.617 110 312C110 247.383 155.891 195 212.5 195C269.109 195 315 247.383 315 312Z" fill="white" stroke="black" stroke-width="14" stroke-miterlimit="1"/>
<path d="M296 312C296 364.467 258.616 407 212.5 407C166.384 407 129 364.467 129 312C129 259.533 166.384 217 212.5 217C258.616 217 296 259.533 296 312Z" fill="black"/>
<circle cx="178" cy="278" r="20.5" fill="black" stroke="white" stroke-width="9"/>
<circle cx="247" cy="278" r="20.5" fill="black" stroke="white" stroke-width="9"/>
<circle cx="213" cy="216" r="153" stroke="black" stroke-width="25"/>
</g>
</svg>
